<?xml version="1.0" encoding="UTF-8"?>
<svg width="157px" height="100px" viewBox="0 0 157 100" version="1.1" xmlns="http://www.w3.org/2000/svg" xmlns:xlink="http://www.w3.org/1999/xlink">
    <!-- Generator: Sketch 46 (44423) - http://www.bohemiancoding.com/sketch -->
    <title>BW-HTown-Lockup-2Color (1)</title>
    <desc>Created with Sketch.</desc>
    <defs></defs>
    <g id="01-landing-page" stroke="none" stroke-width="1" fill="none" fill-rule="evenodd">
        <g id="BUD_BIH-web_landing-page-design_" transform="translate(-40.000000, -10.000000)">
            <g id="nav">
                <g id="content" transform="translate(40.000000, 10.000000)">
                    <g id="BW-HTown-Lockup-2Color-(1)">
                        <g transform="translate(0.273281, 0.136426)">
                            <path d="M127.67598,48.9160982 L128.016352,48.9160982 C128.18114,48.9160982 128.263534,48.9819918 128.263534,49.1133697 C128.263534,49.2507503 128.173488,49.3195089 127.993533,49.3195089 L127.67598,49.3195089 L127.67598,48.9160982 Z M128.314501,49.4975443 C128.493364,49.4234652 128.582727,49.2967258 128.582727,49.1169168 C128.582727,48.9911323 128.537772,48.8885402 128.447862,48.8087312 C128.357816,48.7287858 128.221039,48.6889495 128.037668,48.6889495 L127.367172,48.6889495 L127.367172,50.1317872 L127.67598,50.1317872 L127.67598,49.548704 L128.021681,49.548704 L128.256429,50.1317872 L128.581087,50.1317872 L128.314501,49.4975443 Z M128.675506,50.1545703 C128.473688,50.3601637 128.232927,50.4628922 127.95295,50.4628922 C127.670651,50.4628922 127.428524,50.3601637 127.226706,50.1545703 C127.025161,49.9491132 126.92432,49.7006821 126.92432,49.4092769 C126.92432,49.1204638 127.024888,48.8729877 127.226023,48.666985 C127.427158,48.4607094 127.670651,48.357708 127.956503,48.357708 C128.236343,48.357708 128.476694,48.4611187 128.677282,48.6678035 C128.877734,48.8744884 128.978028,49.1216917 128.978028,49.4092769 C128.978028,49.7006821 128.877187,49.9491132 128.675506,50.1545703 L128.675506,50.1545703 Z M128.837015,48.5251023 C128.593385,48.2795362 128.300427,48.1568895 127.958279,48.1568895 C127.609983,48.1568895 127.313199,48.2795362 127.068203,48.5251023 C126.822796,48.7705321 126.70023,49.0652115 126.70023,49.4092769 C126.70023,49.7536153 126.82307,50.0485675 127.069023,50.294543 C127.314839,50.5406548 127.609983,50.6637108 127.954727,50.6637108 C128.297011,50.6637108 128.590379,50.5406548 128.835102,50.294543 C129.079825,50.0485675 129.202118,49.7540246 129.202118,49.4111869 C129.202118,49.0657572 129.080508,48.7705321 128.837015,48.5251023 L128.837015,48.5251023 Z M14.3387868,19.9165075 L14.3387868,19.9165075 C14.0590836,19.1763984 14.1310931,17.8489768 14.8257737,16.8826739 C15.8384169,15.4735334 18.0452985,14.6249659 21.0912898,14.6249659 C21.3547328,14.6249659 21.6157163,14.63206 21.8750601,14.6433834 L17.6407058,21.1560709 C17.8906214,21.1738063 18.1503751,21.1830832 18.4210601,21.1822647 C23.0365048,21.1676671 25.688698,18.7510232 26.6643116,17.6506139 C26.6643116,17.6506139 28.584658,14.9934516 28.6133525,14.9519782 C26.7904308,14.2547067 24.0953325,13.5129604 20.862007,13.5129604 C16.3340122,13.5129604 13.5731897,15.3474761 13.5659478,17.9511596 C13.5636249,18.7323329 13.8284343,19.3967258 14.3364639,19.9160982 L14.3387868,19.9165075 Z M109.196984,17.614734 C109.196984,16.7774898 108.631566,16.3488404 107.971728,16.3488404 C106.822035,16.3488404 106.11615,17.4186903 106.11615,18.3231924 C106.11615,19.038472 106.545884,19.5433834 107.388683,19.5433834 C108.403923,19.5433834 109.196984,18.5878581 109.196984,17.614734 L109.196984,17.614734 Z M12.3702063,19.1578445 C12.9710148,20.8967258 14.9445144,22.0076398 18.2788172,22.0076398 C21.088557,22.0076398 23.2873768,21.1738063 24.8751401,20.192633 C22.3933377,23.7390177 19.1050827,28.6152797 17.9090679,30.5833561 C17.3204204,31.5515689 16.9061262,32.3358799 16.9061262,33.0747613 C16.9061262,34.3141883 18.1393072,35.0085948 19.5521706,35.0085948 C21.252799,35.0085948 22.6271297,33.7909959 24.3630113,31.5944065 L24.9735213,30.7815825 C24.9735213,30.7815825 24.8857981,31.2193724 24.8857981,31.6158254 C24.8857981,33.4556617 26.0093934,35.0130969 29.534993,35.0130969 C34.344604,35.0130969 38.7967633,32.4934516 43.1547772,28.3500682 L44.0755979,27.4751705 C42.6863734,29.3735334 42.1283333,30.6914052 42.1283333,31.4978172 C42.1283333,32.5092769 42.8349017,33.1144611 43.9707946,33.1144611 C45.7141915,33.1144611 47.5998312,31.7461119 49.1002811,30.2050477 L49.779658,29.499045 C49.3292907,30.3673943 49.1002811,31.0492497 49.1002811,31.6135061 C49.1002811,32.438472 49.6005222,33.1261937 50.8216789,33.1261937 C52.9643394,33.1261937 55.0098486,31.2032742 56.7223647,29.3701228 C56.4708094,29.9620737 56.2352411,30.7030014 56.2352411,31.2665757 C56.2352411,32.4177353 57.0028877,33.099045 58.2452237,33.099045 C59.8540296,33.099045 61.467208,32.2283765 63.3264761,30.1388813 C63.5635474,29.8721692 63.9312472,29.4597544 64.2604143,29.0613915 C63.9285144,29.7336971 63.5366292,30.5830832 63.5366292,31.4406548 C63.5366292,32.466985 64.1608033,33.0897681 65.3696623,33.0897681 C67.9818198,33.0897681 70.3338138,30.2929059 71.7465405,28.740382 C71.0606049,29.8759891 70.6308703,30.679809 70.6308703,31.46794 C70.6308703,32.6081855 71.4572724,33.0924966 72.4677293,33.0924966 C74.7701227,33.0924966 76.8857285,31.0379263 78.5006832,29.0150068 C78.1062019,29.7884038 77.6909513,30.5758527 77.6909513,31.4002729 C77.6909513,32.4908595 78.4364621,33.0785812 79.6865866,33.0785812 C80.8107285,33.0785812 82.2443612,32.6428377 83.8423725,31.2222374 C85.3186371,29.9095498 86.4341706,28.4564802 87.331899,27.0774898 C87.7463299,27.7759891 88.4108129,28.1915416 89.1746336,28.4281037 C88.8473795,29.1589359 88.6431018,29.9578445 88.6431018,30.6271487 C88.6431018,32.1042292 89.566792,33.0840382 91.5599678,33.0840382 C94.9311636,33.0840382 97.7305187,30.194543 99.4696797,28.3418827 C98.6130801,29.8040928 98.3235387,30.6855389 98.3235387,31.3989086 C98.3235387,32.466985 99.013027,33.0965894 100.277089,33.0965894 C102.473039,33.0965894 104.803854,30.845839 106.822581,28.8908595 C107.532156,28.2040928 109.156129,26.5619372 111.477925,24.0914052 C111.318329,24.8313779 111.081668,26.0208731 110.975498,26.6114598 C110.174648,31.0553888 108.95759,32.434925 107.464792,32.434925 C106.144708,32.434925 106.472645,31.0043656 105.491292,31.0043656 C105.107879,31.0043656 104.817518,31.3240109 104.817518,31.7294679 C104.817518,32.4889495 105.714153,33.1574352 107.285793,33.1574352 C110.275898,33.1574352 112.402708,31.3139154 114.08571,29.8058663 C114.922634,29.0529332 115.766252,28.2830832 116.691992,27.4607094 C116.121245,28.4587995 115.63863,29.5549795 115.63863,30.7571623 C115.63863,32.0882674 116.5119,33.0978172 118.411067,33.0978172 C122.059916,33.0978172 124.861185,29.7291951 126.381721,27.7776262 C128.455924,25.114734 130.057625,23.1156889 131.00591,23.1156889 C131.222622,23.1156889 131.349015,23.2290587 131.349015,23.4484311 C131.349015,23.8619372 131.054144,24.3560709 130.50403,25.3171896 C128.741093,28.3944065 126.1922,32.1712142 125.79034,32.848704 L128.786868,32.7358799 C130.184837,30.4729877 133.991097,25.5080491 135.886301,23.8870396 C135.405326,24.5702592 135.121114,25.3574352 135.121114,25.9905866 C135.121114,27.1065484 135.839843,27.7938608 137.278668,27.7938608 C138.031558,27.7938608 138.621845,27.621146 139.187537,27.3298772 L138.94705,26.7495225 C138.572654,26.9507503 138.254282,27.0560709 137.874421,27.0560709 C137.203516,27.0560709 137.00812,26.5995907 137.00812,26.0875853 C137.00812,24.9058663 138.108077,23.4223738 139.249025,23.0652115 C139.240827,22.5185539 138.722959,22.1227831 137.900383,22.1227831 C136.760801,22.1227831 135.216762,23.0110505 132.010628,27.1060027 C132.96356,25.3581173 133.452733,24.5241473 133.452733,23.5223738 C133.452733,22.7376535 132.924344,22.1582538 131.820835,22.1582538 C129.762618,22.1582538 128.453328,23.9978172 125.73869,27.4369714 C124.03041,29.6032742 121.780213,31.8909959 119.585903,31.8909959 C118.816753,31.8909959 118.429104,31.4971351 118.429104,30.8351978 C118.427054,30.0184175 118.823585,29.033015 119.118592,28.4948158 C121.948828,28.192633 125.994071,25.9035471 125.994071,23.43397 C125.994071,22.3912688 125.292422,21.9675307 124.089302,21.9675307 C122.644738,21.9675307 120.83794,22.6567531 118.937953,24.4296044 C117.087293,26.1567531 113.988832,29.0702592 112.443291,30.3109141 C113.179237,29.212824 113.376546,28.1492497 113.376546,26.8893588 C113.376546,25.6556617 113.245917,24.7124147 113.245917,23.5102319 C113.245917,23.3663029 113.257668,23.1188267 113.278711,22.9907231 C113.888128,22.8736698 114.405859,22.4406548 114.405859,21.7856753 C114.405859,21.2963165 114.091859,20.9196453 113.479299,20.9196453 C112.727913,20.9196453 112.076001,21.4789905 111.764324,22.7341064 C110.846372,23.7466576 109.361773,25.2889495 108.034446,26.646794 C104.853454,29.8877217 102.674447,31.8405184 101.484445,31.8405184 C101.172084,31.8405184 100.979285,31.6909959 100.979285,31.3399727 C100.979285,30.6879945 101.91254,29.0540246 102.722408,27.7671214 C102.722408,27.7671214 103.540612,26.4358799 106.061084,22.4562074 L103.076034,22.6297408 C102.848801,23.0031378 102.035653,24.1222374 101.871821,24.3297408 C99.7783507,27.0780355 95.9126527,31.8899045 92.7368529,31.8899045 C91.7601462,31.8899045 91.4465561,31.3948158 91.4465561,30.7141883 C91.4465561,29.9824011 91.791027,29.1742156 92.1062567,28.5080491 C96.0762115,27.9572988 98.9938973,25.3148704 98.9938973,23.43397 C98.9938973,22.4442019 98.3969147,21.9675307 97.1119469,21.9675307 C93.5218529,21.9675307 90.6581401,25.5264666 89.4973786,27.7646658 C88.7317815,27.5489768 88.0916205,27.0967258 87.7778938,26.3557981 C88.8812663,24.5090041 89.5081732,22.9345157 89.5081732,22.3735334 C89.5081732,22.0762619 89.1575535,21.8503411 88.6914726,21.8503411 C88.0942167,21.8503411 87.7304795,22.1489768 87.5072089,22.4747613 C87.0486432,23.1447476 86.7394256,24.4076398 86.7823307,25.820191 C86.0615518,27.9020464 83.025262,31.8226467 80.8567763,31.8226467 C80.4434386,31.8226467 80.2879417,31.6263302 80.2879417,31.3049113 C80.2879417,30.6510232 81.0570914,29.161528 82.4689983,26.8720327 C82.6512768,26.5746248 84.336738,23.7956344 85.1735248,22.4578445 L82.2050087,22.6184175 C81.5011732,23.6997271 80.9078799,24.6392906 80.1610026,25.6931787 C77.0281079,30.1126876 74.8963786,31.8283765 73.7546101,31.8283765 C73.426946,31.8283765 73.2599713,31.6746248 73.2599713,31.387176 C73.2599713,31.1050477 73.4195674,30.7364256 73.7223629,30.172442 C74.684859,28.3761255 76.9970905,24.971487 78.6733969,22.4622101 L75.6675779,22.6125512 C75.3199643,23.128513 74.3313699,24.5049113 73.9513725,24.9863574 C69.7402472,30.280764 67.7176936,31.8035471 66.6892002,31.8035471 C66.3204073,31.8035471 66.1938782,31.5882674 66.1938782,31.2784447 C66.1938782,30.4159618 67.1325988,28.7959072 69.001295,25.6504775 L76.2421514,13.7972715 L76.2420148,13.7972715 L77.0166301,14.7480218 C77.0166301,14.7480218 76.8202776,15.0738063 76.5050479,15.5956344 L156.19792,0.125375171 L138.948416,26.7503411 L139.73,27.2481583 L140.156319,28.1744884 C139.631619,28.4705321 138.763951,28.9212824 137.680392,28.9212824 C137.633934,28.9212824 137.588842,28.9195089 137.543751,28.9181446 L123.537547,50.5347885 L62.3117833,38.4103683 L0.00778851175,48.2761255 L16.4210522,23.0317872 C14.3517676,22.6125512 12.5937502,21.4781719 12.3685666,19.153206 L12.3702063,19.1578445 Z M29.8160627,13.3204638 L33.3886667,13.1673943 C33.0593629,13.6215553 32.4653864,14.4341064 31.7782211,15.3953615 C32.4261706,15.7012278 33.0809521,16.0313779 33.7148277,16.3718963 C35.9187032,13.5772169 37.9732306,12.3047749 40.6490627,12.3047749 C43.5386005,12.3047749 44.6207937,13.9519782 44.6207937,15.6343793 C44.6207937,17.158663 43.7260714,18.9109141 42.6720261,19.965075 C41.2467285,21.3909959 39.288396,22.0555252 37.7014526,22.4023192 C38.5774552,22.8833561 40.1803856,23.5822647 40.1803856,26.1207367 C40.1803856,28.2529332 39.0197607,30.2050477 37.6559513,31.7270123 C40.2764439,30.218281 44.0887154,26.6105048 45.7558668,24.5698499 C46.1410566,24.093588 46.8366936,23.1350614 47.1926423,22.6316508 L50.3084569,22.4387449 C50.3084569,22.4387449 46.3338564,28.4395634 45.4746606,29.9144611 C44.992456,30.7476126 44.8649704,31.1162347 44.8649704,31.3998636 C44.8649704,31.5907231 44.9826179,31.7866303 45.3384299,31.7866303 C46.5444195,31.7866303 48.8177084,29.7523874 50.4349861,27.6572988 C51.1739382,26.6967258 53.8463542,22.6492497 53.8463542,22.6492497 L57.0105396,22.4537517 C54.4475727,26.3832196 53.6085997,27.7066849 53.6085997,27.7066849 C52.7802846,29.0365621 52.0850574,30.2261937 51.9010026,30.8526603 C51.84498,31.0440655 51.8175152,31.2055935 51.8175152,31.3386085 C51.8175152,31.6436562 51.968913,31.7948158 52.2706153,31.7948158 C54.1106171,31.7948158 57.4048842,27.4556617 58.4531906,26.134925 C60.3794125,23.7081855 62.716376,22.021146 65.2388973,22.021146 C66.3840818,22.021146 67.1252202,22.4587995 67.4806223,23.206412 C68.4780983,21.5690314 70.3590923,18.4680764 71.6234273,16.3829468 L30.8934735,0.77271487 L23.0661558,12.8114598 C25.4693899,13.0587995 27.4763664,13.648704 29.1082646,14.2607094 C29.369248,13.9043656 29.5863699,13.6121419 29.8160627,13.3204638 L29.8160627,13.3204638 Z M32.0453534,25.4616644 L32.0453534,26.2699864 C28.2194178,26.33206 25.844195,28.9034106 25.844195,31.5634379 C25.844195,32.9961801 26.6178538,33.9900409 28.6841323,33.9900409 C33.4826754,33.9900409 36.7809051,28.8542974 36.7809051,25.4839018 C36.7809051,23.9566166 36.2303803,22.5956344 33.8085631,22.5956344 L32.6600992,22.5956344 C32.2684874,22.5956344 31.9566736,22.6230559 31.7743951,22.6609823 L32.4864291,21.6004093 C34.5591297,21.6004093 36.1934874,21.5579809 37.3673664,21.0068213 C39.9797972,19.7702592 41.346886,16.8607094 41.346886,15.3386085 C41.346886,14.299045 40.9365544,13.4635744 39.6002097,13.4635744 C37.5773829,13.4635744 35.7652559,15.4090041 34.6023081,16.8971351 C35.614678,17.5023192 36.3182402,18.0270123 36.8231271,18.4204638 L36.3428355,19.0420191 C35.7007615,18.5356071 34.9455492,18.0214188 34.1052097,17.534925 C32.8365022,19.2267394 29.9450513,23.691678 27.9502359,26.6126876 C29.2640348,25.7446112 30.9545518,25.4616644 32.0453534,25.4616644 L32.0453534,25.4616644 Z M97.6604221,23.2327422 C97.6604221,22.9293315 97.4913977,22.7261937 97.1594978,22.7261937 C95.7459513,22.7261937 93.8883229,25.23397 92.4947258,27.7803547 C94.84549,27.4002729 97.6604221,25.1080491 97.6604221,23.2327422 L97.6604221,23.2327422 Z M124.653628,23.234925 C124.653628,22.9283765 124.517807,22.7261937 124.178802,22.7261937 C122.961334,22.7261937 121.261252,24.5738063 119.508701,27.7667121 C121.859601,27.3813097 124.653628,24.9682128 124.653628,23.234925 L124.653628,23.234925 Z M59.7318729,31.7564802 C60.3313151,31.7564802 61.3028294,31.3294679 62.7069478,29.7624829 C64.0327711,28.3020464 65.5412829,26.3611187 66.6785422,24.4215553 C66.7780165,24.2525239 66.831443,24.0237381 66.831443,23.8537517 C66.831443,23.2581173 66.4360052,22.9165075 65.768926,22.9165075 C64.5994195,22.9165075 63.4326458,23.7171896 61.8361375,25.7219645 C60.4611236,27.4459754 59.0575518,30.0170532 59.0575518,31.1342428 C59.0575518,31.425648 59.1354369,31.7564802 59.7318729,31.7564802 L59.7318729,31.7564802 Z M20.6995413,31.734925 C21.3365596,30.655116 30.5841192,17.0821282 31.3025753,16.0781719 C31.9473821,16.375307 32.5883629,16.6874488 33.2214186,17.022101 C31.7134534,19.0664393 29.5446945,22.4918145 27.3565326,25.6826739 C24.9086171,29.251296 23.1350226,31.7672578 21.7423821,32.9721692 C21.2006023,33.4424284 20.8139095,33.6781719 20.4576876,33.6781719 C20.1595379,33.6781719 20.0407972,33.4984993 20.0407972,33.2864939 C20.0407972,33.0319236 20.1624073,32.6459754 20.6995413,31.734925 L20.6995413,31.734925 Z" id="Fill-2" fill="#B52531"></path>
                            <path d="M31.7743951,22.6611187 L32.4864291,21.6005457 C34.5591297,21.6005457 36.1934874,21.5579809 37.3673664,21.0068213 C39.9797972,19.7701228 41.3470226,16.8607094 41.3470226,15.3386085 C41.3470226,14.299045 40.936691,13.4634379 39.6000731,13.4634379 C37.5775196,13.4634379 35.7651192,15.4088677 34.6023081,16.8971351 C35.614678,17.5023192 36.3182402,18.0270123 36.8231271,18.4203274 L36.3426989,19.0418827 C35.7007615,18.5356071 34.9455492,18.0212824 34.1052097,17.5350614 C32.8365022,19.226603 29.9450513,23.691678 27.9502359,26.6125512 C29.2640348,25.7446112 30.9545518,25.461528 32.04549,25.461528 L32.04549,26.2698499 C28.2194178,26.33206 25.844195,28.9032742 25.844195,31.5634379 C25.844195,32.9963165 26.6178538,33.9900409 28.6841323,33.9900409 C33.482812,33.9900409 36.7807685,28.8542974 36.7807685,25.4837653 C36.7807685,23.9567531 36.2303803,22.5957708 33.8085631,22.5957708 L32.6600992,22.5957708 C32.2684874,22.5957708 31.9566736,22.6229195 31.7743951,22.6611187 M27.356396,25.6825375 C29.5448312,22.4918145 31.7134534,19.0664393 33.2215553,17.0222374 C32.5883629,16.6874488 31.9472454,16.3754434 31.3025753,16.0780355 C30.5841192,17.0821282 21.336423,30.655116 20.699678,31.734925 C20.1624073,32.6459754 20.0407972,33.03206 20.0407972,33.2864939 C20.0407972,33.4986357 20.1595379,33.6780355 20.4576876,33.6780355 C20.8140461,33.6780355 21.2006023,33.4424284 21.7425187,32.9723056 C23.1350226,31.7672578 24.9086171,29.2511596 27.356396,25.6825375 M26.6644482,17.6506139 C26.6644482,17.6506139 28.584658,14.9934516 28.6133525,14.9519782 C26.7904308,14.2547067 24.0951958,13.512824 20.8618703,13.512824 C16.3340122,13.512824 13.5731897,15.3476126 13.5659478,17.9511596 C13.559799,19.9562074 15.3141271,21.1912688 18.4210601,21.1822647 C23.0366414,21.1678035 25.688698,18.7510232 26.6644482,17.6506139 M56.7223647,29.3701228 C55.0098486,31.2032742 52.9643394,33.1261937 50.8216789,33.1261937 C49.6005222,33.1261937 49.1002811,32.438472 49.1002811,31.6135061 C49.1002811,31.0491132 49.3292907,30.3672578 49.779658,29.4991814 L49.1002811,30.2051842 C47.5999678,31.7461119 45.7140548,33.1145975 43.9707946,33.1145975 C42.8349017,33.1145975 42.1283333,32.5092769 42.1283333,31.4976808 C42.1283333,30.6915416 42.6863734,29.3736698 44.0755979,27.4751705 L43.1547772,28.3500682 C38.7967633,32.493588 34.3444674,35.0129604 29.534993,35.0129604 C26.0093934,35.0129604 24.8857981,33.4557981 24.8857981,31.6159618 C24.8857981,31.219236 24.9735213,30.7815825 24.9735213,30.7815825 L24.3628747,31.5944065 C22.6271297,33.7909959 21.252799,35.0085948 19.5521706,35.0085948 C18.1393072,35.0085948 16.9061262,34.3140518 16.9061262,33.0747613 C16.9061262,32.3357435 17.320557,31.5514325 17.9090679,30.5832196 C19.1050827,28.6152797 22.3930644,23.7390177 24.8751401,20.192633 C23.2873768,21.1738063 21.088557,22.0077763 18.2788172,22.0077763 C14.2154003,22.0077763 12.1730339,20.3578445 12.1730339,17.9319236 C12.1730339,14.7783083 15.4205701,12.6892224 20.6880635,12.6892224 C24.1759504,12.6892224 26.9646475,13.4568895 29.1082646,14.2608458 C29.369248,13.9043656 29.5863699,13.6122783 29.8160627,13.3204638 L33.3886667,13.1675307 C33.0594996,13.6216917 32.4653864,14.4342428 31.7782211,15.3953615 C32.4261706,15.7015007 33.0809521,16.0312415 33.7148277,16.3718963 C35.9187032,13.5772169 37.9733673,12.3047749 40.6490627,12.3047749 C43.5386005,12.3047749 44.6209304,13.9521146 44.6209304,15.6343793 C44.6209304,17.1585266 43.7260714,18.9109141 42.6720261,19.9652115 C41.2467285,21.3908595 39.2882594,22.0555252 37.7014526,22.4023192 C38.5774552,22.8834925 40.1803856,23.5821282 40.1803856,26.1206003 C40.1803856,28.2527967 39.0197607,30.2051842 37.6559513,31.7271487 C40.2765805,30.2184175 44.0885788,26.6103683 45.7558668,24.5698499 C46.1410566,24.0937244 46.8366936,23.1353342 47.1925057,22.6317872 L50.3085936,22.4388813 C50.3085936,22.4388813 46.3338564,28.4392906 45.4746606,29.9143247 C44.9925927,30.7476126 44.8649704,31.1162347 44.8649704,31.3998636 C44.8649704,31.5907231 44.9824813,31.7866303 45.3384299,31.7866303 C46.5444195,31.7866303 48.8175718,29.7523874 50.4349861,27.6572988 C51.1739382,26.6967258 53.8463542,22.6492497 53.8463542,22.6492497 L57.0105396,22.4537517 C54.4475727,26.3833561 53.6085997,27.7066849 53.6085997,27.7066849 C52.7802846,29.0366985 52.0850574,30.2263302 51.9010026,30.8526603 C51.84498,31.0442019 51.8175152,31.2057299 51.8175152,31.3387449 C51.8175152,31.6437926 51.968913,31.7948158 52.2706153,31.7948158 C54.1106171,31.7948158 57.4050209,27.4555252 58.4531906,26.134925 C60.3794125,23.7081855 62.7165126,22.021146 65.2388973,22.021146 C66.3840818,22.021146 67.1252202,22.4587995 67.4806223,23.206412 C69.0711184,20.5952251 72.9089417,14.2622101 72.9089417,14.2622101 L76.2421514,13.7972715 C73.8781332,17.6328786 69.3562872,25.0533424 69.001295,25.6506139 C67.1325988,28.7960437 66.1938782,30.4159618 66.1938782,31.2784447 C66.1938782,31.5882674 66.3204073,31.8036835 66.6892002,31.8036835 C67.7176936,31.8036835 69.7402472,30.2806276 73.9512359,24.986221 C74.3313699,24.5047749 75.320101,23.1286494 75.6675779,22.6125512 L78.6733969,22.4622101 C76.9969539,24.971487 74.6847224,28.3762619 73.7222263,30.1725784 C73.4195674,30.7362892 73.2599713,31.1050477 73.2599713,31.3873124 C73.2599713,31.6747613 73.4268094,31.8283765 73.7546101,31.8283765 C74.8963786,31.8283765 77.0281079,30.1125512 80.1610026,25.6931787 C80.9078799,24.6391542 81.5011732,23.6997271 82.2050087,22.6184175 L85.1736614,22.4578445 C84.336738,23.7956344 82.6512768,26.5746248 82.4689983,26.8720327 C81.0570914,29.1613915 80.2879417,30.6510232 80.2879417,31.3049113 C80.2879417,31.6264666 80.4434386,31.8225102 80.8567763,31.8225102 C83.025262,31.8225102 86.0615518,27.9020464 86.7823307,25.820191 C86.7395622,24.4077763 87.0486432,23.1447476 87.5072089,22.4747613 C87.7306162,22.1488404 88.0940801,21.8503411 88.6914726,21.8503411 C89.1575535,21.8503411 89.5081732,22.0763984 89.5081732,22.3735334 C89.5081732,22.9343793 88.8812663,24.5091405 87.7778938,26.3557981 C88.0917572,27.0967258 88.7319182,27.5491132 89.4972419,27.7646658 C90.6581401,25.5264666 93.5218529,21.9675307 97.1118103,21.9675307 C98.3969147,21.9675307 98.9937607,22.4443383 98.9937607,23.43397 C98.9937607,25.3150068 96.0762115,27.9571623 92.1063934,28.5080491 C91.791027,29.174352 91.4465561,29.9824011 91.4465561,30.7143247 C91.4465561,31.3948158 91.7600096,31.8899045 92.7368529,31.8899045 C95.9126527,31.8899045 99.7783507,27.0780355 101.871684,24.3297408 C102.035653,24.1222374 102.848801,23.0031378 103.076034,22.6297408 L106.06122,22.4562074 C103.540748,26.4358799 102.722408,27.766985 102.722408,27.766985 C101.91254,29.0538881 100.979285,30.6879945 100.979285,31.3401091 C100.979285,31.6911323 101.172084,31.8406548 101.484445,31.8406548 C102.674447,31.8406548 104.853318,29.8878581 108.03431,26.646794 C109.361909,25.2890859 110.846372,23.7466576 111.764187,22.7342428 C112.076001,21.4791269 112.72805,20.9196453 113.479299,20.9196453 C114.091859,20.9196453 114.405859,21.2963165 114.405859,21.7855389 C114.405859,22.4407913 113.888128,22.8736698 113.278711,22.9909959 C113.257668,23.1189632 113.245781,23.3664393 113.245781,23.5102319 C113.245781,24.7122783 113.376546,25.6559345 113.376546,26.8892224 C113.376546,28.1493861 113.179237,29.212824 112.443154,30.3107776 C113.988832,29.0702592 117.087293,26.1568895 118.937953,24.4297408 C120.83794,22.6567531 122.644738,21.9675307 124.089302,21.9675307 C125.292422,21.9675307 125.994071,22.3912688 125.994071,23.43397 C125.994071,25.9035471 121.948828,28.192633 119.118592,28.4949523 C118.823585,29.0331514 118.426917,30.0184175 118.429104,30.8351978 C118.429104,31.4972715 118.816753,31.8909959 119.585766,31.8909959 C121.780213,31.8909959 124.030273,29.6031378 125.73869,27.4371078 C128.453465,23.9978172 129.762755,22.1583902 131.820835,22.1583902 C132.924344,22.1583902 133.452733,22.7376535 133.452733,23.5223738 C133.452733,24.5242838 132.96356,25.3581173 132.010628,27.1058663 C135.216762,23.0109141 136.760801,22.1226467 137.900383,22.1226467 C138.722959,22.1226467 139.240827,22.5186903 139.249025,23.0653479 C138.108077,23.4225102 137.00812,24.9058663 137.00812,26.0877217 C137.00812,26.5994543 137.203516,27.0560709 137.874421,27.0560709 C138.254282,27.0560709 138.572654,26.9508868 138.94705,26.7495225 L139.187537,27.3298772 C138.621845,27.621146 138.031558,27.7938608 137.278668,27.7938608 C135.839843,27.7938608 135.121114,27.1066849 135.121114,25.9905866 C135.121114,25.3575716 135.405326,24.5703956 135.886301,23.8870396 C133.991097,25.5081855 130.184837,30.4732606 128.786731,32.7357435 L125.79034,32.848704 C126.192337,32.1712142 128.741093,28.394543 130.50403,25.3171896 C131.054144,24.3560709 131.349015,23.8619372 131.349015,23.4482947 C131.349015,23.2289222 131.222759,23.1158254 131.006047,23.1158254 C130.057762,23.1158254 128.455788,25.1145975 126.381721,27.7774898 C124.861048,29.7293315 122.060053,33.0979536 118.411067,33.0979536 C116.5119,33.0979536 115.638767,32.0882674 115.638767,30.7571623 C115.638767,29.5549795 116.121381,28.4587995 116.691856,27.4607094 C115.766252,28.2830832 114.922634,29.0530696 114.08571,29.8058663 C112.402708,31.3139154 110.275898,33.1574352 107.285793,33.1574352 C105.714017,33.1574352 104.817518,32.4889495 104.817518,31.7294679 C104.817518,31.3240109 105.107879,31.0043656 105.491292,31.0043656 C106.472645,31.0043656 106.144571,32.4347885 107.464792,32.4347885 C108.957727,32.4347885 110.174784,31.0553888 110.975361,26.6114598 C111.081668,26.0210095 111.318329,24.8312415 111.477789,24.0915416 C109.156129,26.5619372 107.532019,28.2040928 106.822581,28.8907231 C104.803717,30.8459754 102.473039,33.0965894 100.277089,33.0965894 C99.0128903,33.0965894 98.3235387,32.4671214 98.3235387,31.3987722 C98.3235387,30.6858117 98.6130801,29.8040928 99.4696797,28.3417462 C97.7305187,30.1946794 94.9311636,33.0840382 91.5599678,33.0840382 C89.5669286,33.0840382 88.6432385,32.1042292 88.6432385,30.6272851 C88.6432385,29.9578445 88.8473795,29.1590723 89.174497,28.4279673 C88.4109495,28.1915416 87.7463299,27.7758527 87.3317624,27.0774898 C86.4341706,28.4566166 85.3187737,29.9095498 83.8425091,31.2223738 C82.2442245,32.6429741 80.8108651,33.0785812 79.6865866,33.0785812 C78.4365988,33.0785812 77.6909513,32.4908595 77.6909513,31.4001364 C77.6909513,30.5758527 78.1060653,29.7885402 78.5005466,29.0148704 C76.8858651,31.0379263 74.7701227,33.092633 72.4677293,33.092633 C71.4571358,33.092633 70.6308703,32.6081855 70.6308703,31.46794 C70.6308703,30.679809 71.0606049,29.8758527 71.7465405,28.740382 C70.3338138,30.2929059 67.9819565,33.0897681 65.3696623,33.0897681 C64.1609399,33.0897681 63.5366292,32.4671214 63.5366292,31.4407913 C63.5366292,30.5829468 63.9285144,29.7336971 64.2604143,29.061528 C63.9312472,29.459618 63.5635474,29.8721692 63.3263394,30.1387449 C61.4670714,32.2283765 59.8541662,33.099045 58.2452237,33.099045 C57.0030244,33.099045 56.2352411,32.4178718 56.2352411,31.2665757 C56.2352411,30.7030014 56.4706728,29.9619372 56.7223647,29.3701228 M66.6784056,24.4215553 C66.7778799,24.2525239 66.831443,24.0237381 66.831443,23.8534789 C66.831443,23.2582538 66.4358686,22.9165075 65.768926,22.9165075 C64.5994195,22.9165075 63.4326458,23.7173261 61.8361375,25.722101 C60.4611236,27.4459754 59.0575518,30.0170532 59.0575518,31.1342428 C59.0575518,31.4257844 59.1354369,31.7566166 59.7318729,31.7566166 C60.3313151,31.7566166 61.3028294,31.3294679 62.7069478,29.7627558 C64.0326345,28.3020464 65.5412829,26.3612551 66.6784056,24.4215553 M92.4947258,27.7804911 C94.84549,27.4004093 97.6605587,25.1080491 97.6605587,23.2328786 C97.6605587,22.9291951 97.4913977,22.7260573 97.1594978,22.7260573 C95.7459513,22.7260573 93.8883229,25.23397 92.4947258,27.7804911 M119.508564,27.7665757 C121.859601,27.3814461 124.653628,24.9683492 124.653628,23.2350614 C124.653628,22.928513 124.51767,22.7260573 124.178802,22.7260573 C122.961334,22.7260573 121.261389,24.5739427 119.508564,27.7665757 M106.11615,18.3231924 C106.11615,17.4185539 106.822035,16.3489768 107.971728,16.3489768 C108.631702,16.3489768 109.196984,16.7773533 109.196984,17.614734 C109.196984,18.5878581 108.403923,19.5433834 107.388547,19.5433834 C106.546021,19.5433834 106.11615,19.0383356 106.11615,18.3231924" id="Fill-3" fill="#FFFFFE"></path>
                            <polyline id="Fill-4" fill="#FFFFFF" points="0.424815492 62.1013643 8.71370496 62.1013643 8.71370496 77.3231924 16.3613403 77.3231924 16.3613403 62.1013643 24.6503664 62.1013643 24.6503664 99.047749 16.3613403 99.047749 16.3613403 82.6929059 8.71370496 82.6929059 8.71370496 99.047749 0.424815492 99.047749 0.424815492 62.1013643"></polyline>
                            <polygon id="Fill-5" fill="#FFFFFF" points="28.7948111 88.3087312 41.2777459 88.3087312 41.2777459 82.3480218 28.7948111 82.3480218"></polygon>
                            <polyline id="Fill-6" fill="#FFFFFF" points="64.6149965 67.4710778 58.0035065 67.4710778 58.0035065 99.047749 49.6158259 99.047749 49.6158259 67.4710778 43.0044726 67.4710778 43.0044726 62.1013643 64.6149965 62.1013643 64.6149965 67.4710778"></polyline>
                            <path d="M82.4761036,71.559618 C82.4761036,70.0165075 82.1554082,68.8010914 81.5140174,67.9144611 C80.87249,67.0276944 79.9265274,66.5843111 78.6769495,66.5843111 C77.3940313,66.5843111 76.4319452,67.0276944 75.7905544,67.9144611 C75.1491636,68.8010914 74.8284682,70.0165075 74.8284682,71.559618 L74.8284682,89.4909959 C74.8284682,92.8739427 76.1113864,94.5649386 78.6769495,94.5649386 C81.2094456,94.5649386 82.4761036,92.8739427 82.4761036,89.4909959 L82.4761036,71.559618 Z M66.3419965,72.4956344 C66.3419965,68.9818554 67.3450748,66.2478854 69.3517781,64.2934516 C71.3576614,62.3399727 74.4662341,61.3624829 78.6769495,61.3624829 C82.8537781,61.3624829 85.9459539,62.3399727 87.9527937,64.2934516 C89.9586771,66.2478854 90.9624386,68.9818554 90.9624386,72.4956344 L90.9624386,88.0623465 C90.9624386,91.7409277 89.9671488,94.6140518 87.977389,96.6832196 C85.9868094,98.752251 82.8868451,99.7867667 78.6769495,99.7867667 C74.4662341,99.7867667 71.3576614,98.752251 69.3517781,96.6832196 C67.3450748,94.6140518 66.3419965,91.7409277 66.3419965,88.0623465 L66.3419965,72.4956344 L66.3419965,72.4956344 Z" id="Fill-7" fill="#FFFFFF"></path>
                            <polyline id="Fill-8" fill="#FFFFFF" points="120.07248 85.0574352 123.772979 62.1013643 129.101551 62.1013643 122.786161 99.047749 115.53328 99.047749 111.438163 76.2888131 107.392236 99.047749 99.9420461 99.047749 93.5278651 62.1013643 101.126173 62.1013643 104.826673 85.0080491 108.823136 62.1013643 116.174808 62.1013643 120.07248 85.0574352"></polyline>
                            <polyline id="Fill-9" fill="#FFFFFF" points="156.337293 99.047749 148.667659 99.047749 138.080748 71.9537517 138.080748 99.047749 132.407159 99.047749 132.407159 62.1013643 142.521567 62.1013643 150.662611 82.8899045 150.662611 62.1013643 156.337293 62.1013643 156.337293 99.047749"></polyline>
                        </g>
                    </g>
                </g>
            </g>
        </g>
    </g>
</svg>